<?xml version="1.0" encoding="UTF-8"?>
<!-- Generator: Adobe Illustrator 24.0.1, SVG Export Plug-In . SVG Version: 6.00 Build 0)  -->
<svg xmlns="http://www.w3.org/2000/svg" xmlns:xlink="http://www.w3.org/1999/xlink" version="1.1" id="Icon_x5F_contour" x="0px" y="0px" viewBox="0 0 192 192" style="enable-background:new 0 0 192 192;" xml:space="preserve">
<path d="M156.74042,124.03973c1.04663-1.80957,1.88269-3.75543,2.43829-5.8288c1.65918-6.19141,0.80762-12.65869-2.39746-18.20947  c-2.14435-3.71484-5.18555-6.69971-8.80914-8.77972C147.98602,90.81702,148,90.41229,148,90c0-14.33643-11.66309-26-26-26  S96,75.66357,96,90c0,1.29486,0.10736,2.58331,0.297,3.85718c-3.61139,3.11279-6.21448,7.2254-7.47571,11.93188  c-1.64264,6.12976-0.82062,12.52856,2.30615,18.04205l-10.71729,14.28802l-3.68066,11.04395l-7.71094,3.85547L63.52832,164l6,12  h20.73633l24.07025-40.11725c3.36316-0.32727,6.64899-1.36078,9.66217-3.10101c0.00598-0.00348,0.01147-0.00739,0.01746-0.01086  c1.79456,1.03162,3.72168,1.85785,5.77454,2.40784c1.21088,0.32458,2.43225,0.54132,3.65509,0.67493l7.26874,14.68933L148,157.729  v7.21533L153.52832,176H176v-21.14746L156.74042,124.03973z M122,72c9.35883,0,17.06561,7.18201,17.91504,16.32312  c-5.47443-0.91614-11.04602,0.08478-15.91309,2.89514c-0.00055,0.00031-0.0011,0.00079-0.00165,0.0011  c-6.14142-3.55554-13.39331-4.18506-19.96844-1.84857C104.36725,79.73822,112.2876,72,122,72z M96.54883,107.85986  c1.10547-4.12744,3.75293-7.57666,7.45312-9.71338c4.14258-2.39008,8.98682-2.78046,13.34241-1.22485  c-2.08368,2.57629-3.63965,5.5708-4.52307,8.86743c-1.65918,6.19141-0.80762,12.65869,2.39746,18.20947  c0.63068,1.09259,1.35822,2.10425,2.13428,3.06879c-3.03333,1.08472-6.31708,1.23541-9.49365,0.38434  c-4.12695-1.10596-7.57617-3.75293-9.71289-7.45312C96.00977,116.29785,95.44238,111.9873,96.54883,107.85986z M85.73535,168  H74.47168l-2-4l2.50977-5.01855l8.28906-4.14453l4.31934-12.95605l8.77454-11.69788  c2.61798,2.25464,5.70502,3.93555,9.12207,4.89868L85.73535,168z M122.14648,119.99854  c-2.13672-3.70068-2.7041-8.01123-1.59766-12.13867c1.10547-4.12744,3.75293-7.57666,7.45312-9.71338  c2.46484-1.42285,5.2002-2.1499,7.97266-2.1499c1.06555,0,2.13611,0.10956,3.19879,0.32605  c-0.98163,3.41754-2.85352,6.22595-5.72028,8.5929c-1.70312,1.40674-1.94434,3.92773-0.53711,5.63135  c0.79102,0.95801,1.93359,1.45312,3.08594,1.45312c0.89746,0,1.7998-0.30029,2.54492-0.91553  c3.72247-3.07397,6.3468-6.82733,7.87286-11.20837c1.34851,1.16077,2.5177,2.539,3.43378,4.12537  c2.13672,3.70068,2.7041,8.01123,1.59766,12.13867c-1.10547,4.12744-3.75293,7.57666-7.45312,9.71338  c-3.7002,2.13525-8.0127,2.70361-12.13867,1.59814C127.73242,126.3457,124.2832,123.69873,122.14648,119.99854z M168,168h-9.52832  L156,163.05566v-8.67334l-8.71289-8.59229l-5.22809-10.56458c2.05426-0.53937,4.05017-1.35339,5.93903-2.44373  c1.18536-0.68433,2.28204-1.47583,3.31616-2.33057L168,157.14746V168z M88.27429,85.75635  c0.40247-3.21545,1.24921-6.29395,2.48773-9.16772c-4.1618-4.07336-9.12347-7.33319-14.62836-9.51129  C83.47546,62.02454,88.30078,53.56677,88.30078,44c0-15.43945-12.56055-28-28-28s-28,12.56055-28,28  c0,9.47247,4.73236,17.85522,11.95239,22.92456C27.74854,73.27368,16,89.28607,16,108h8c0-19.85059,16.14941-36,36-36  C71.45892,72,81.67651,77.388,88.27429,85.75635z M40.30078,44c0-11.02783,8.97168-20,20-20s20,8.97217,20,20s-8.97168,20-20,20  S40.30078,55.02783,40.30078,44z" style="fill: #ffffff;"/>
<g>
</g>
<g>
</g>
<g>
</g>
<g>
</g>
<g>
</g>
<g>
</g>
<g>
</g>
<g>
</g>
<g>
</g>
<g>
</g>
<g>
</g>
<g>
</g>
<g>
</g>
<g>
</g>
<g>
</g>
</svg>
