<?xml version="1.0" encoding="utf-8"?>
<!-- Generator: Adobe Illustrator 25.0.0, SVG Export Plug-In . SVG Version: 6.00 Build 0)  -->
<svg version="1.1" id="Icon_x5F_contour" xmlns="http://www.w3.org/2000/svg" xmlns:xlink="http://www.w3.org/1999/xlink" x="0px"
	 y="0px" viewBox="0 0 192 192" style="enable-background:new 0 0 192 192;" xml:space="preserve">
<path d="M96,176c-44.1123,0-80-35.8877-80-80s35.8877-80,80-80s80,35.8877,80,80S140.1123,176,96,176z M96,24
	c-39.70117,0-72,32.29883-72,72s32.29883,72,72,72s72-32.29883,72-72S135.70117,24,96,24z M88.9,63.10001
	C88.9,59.20002,92.1,56,96,56c4,0,7.1,3.1,7.1,7.1s-3.1,7.1-7.1,7.1C92.1,70.2,88.9,67.00001,88.9,63.10001z M90.75,80.4h10.5V136
	h-10.5V80.4z"/>
<g>
</g>
<g>
</g>
<g>
</g>
<g>
</g>
<g>
</g>
<g>
</g>
<g>
</g>
<g>
</g>
<g>
</g>
<g>
</g>
<g>
</g>
<g>
</g>
<g>
</g>
<g>
</g>
<g>
</g>
</svg>
