<?xml version="1.0" encoding="UTF-8"?>
<!-- Generator: Adobe Illustrator 24.0.1, SVG Export Plug-In . SVG Version: 6.00 Build 0)  -->
<svg xmlns="http://www.w3.org/2000/svg" xmlns:xlink="http://www.w3.org/1999/xlink" version="1.1" id="Icon_x5F_contour" x="0px" y="0px" viewBox="0 0 192 192" style="enable-background:new 0 0 192 192;" xml:space="preserve">
<path d="M116,69.65674l-10.82861-10.82812l5.65723-5.65723L116,58.34326l13.17139-13.17188l5.65723,5.65723L116,69.65674z   M134.82861,78.82861l-5.65723-5.65723L116,86.34326l-5.17139-5.17188l-5.65723,5.65723L116,97.65674L134.82861,78.82861z   M134.82861,106.82861l-5.65723-5.65723L116,114.34326l-5.17139-5.17188l-5.65723,5.65723L116,125.65674L134.82861,106.82861z   M152,16H40v160h112V16z M48,24h96v144H48V24z M96,56H56v8h40V56z M96,84H56v8h40V84z M96,112H56v8h40V112z" style="fill: #ffffff;"/>
<g>
</g>
<g>
</g>
<g>
</g>
<g>
</g>
<g>
</g>
<g>
</g>
<g>
</g>
<g>
</g>
<g>
</g>
<g>
</g>
<g>
</g>
<g>
</g>
<g>
</g>
<g>
</g>
<g>
</g>
</svg>
