<?xml version="1.0" encoding="UTF-8"?>
<svg xmlns="http://www.w3.org/2000/svg" viewBox="0 0 192 192"><path d="M134.8 62.8L116 81.7l-10.8-10.8 5.7-5.7 5.2 5.2 13.2-13.2 5.5 5.6zm-24 30.4l-5.7 5.7 10.8 10.8 18.8-18.8-5.7-5.7-13 13.1-5.2-5.1zM176 144c0 17.6-14.4 32-32 32s-32-14.4-32-32 14.4-32 32-32 32 14.4 32 32zm-8 0c0-13.2-10.8-24-24-24s-24 10.8-24 24 10.8 24 24 24 24-10.8 24-24zm-48 32H40V24h28v-8h56v8h28v80.8c-2.6-.5-5.3-.8-8-.8V32h-20v8H68v-8H48v136h64c2.3 3 5 5.7 8 8zM76 32h40v-8H76v8zm20 64H56v8h40v-8zm0-28H56v8h40v-8zm52 60h-8v12h-12v8h12v12h8v-12h12v-8h-12v-12zm-92 4h40v-8H56v8z" style="fill: #ffffff;"/></svg>
