<?xml version="1.0" encoding="UTF-8"?>
<svg xmlns="http://www.w3.org/2000/svg" viewBox="0 0 192 192"><path d="M104 80c6.617 0 12-5.369 12-11.968 0-6.598-5.383-11.967-12-11.967s-12 5.369-12 11.967C92 74.632 97.383 80 104 80zm0-15.935c2.206 0 4 1.78 4 3.967 0 2.188-1.794 3.968-4 3.968s-4-1.78-4-3.968c0-2.187 1.794-3.967 4-3.967zM104 144c0 2.74.278 5.414.805 8H36v-8h68zm72-86v62.028a40.341 40.341 0 0 0-8-8.006V58h8zm-22.829 75.171l5.658 5.658L140 157.657l-10.829-10.828 5.658-5.658 5.171 5.172 13.171-13.172zM144 112c-17.645 0-32 14.355-32 32s14.355 32 32 32 32-14.355 32-32-14.355-32-32-32zm0 56c-13.234 0-24-10.766-24-24s10.766-24 24-24 24 10.766 24 24-10.766 24-24 24zM24 110.14l43.67-29.113 32 28 24.4-16.266 18.059 11.286c.62-.028 1.243-.047 1.871-.047 2.847 0 5.623.304 8.302.875.225.048.447.104.67.156.684.158 1.36.333 2.03.526.235.067.47.132.702.203.328.101.652.21.977.318 1.127.38 2.238.798 3.319 1.272V40H16v96h88.805a39.647 39.647 0 0 1 2.545-8H24v-17.86zM152 48v52.783l-28.07-17.544-23.6 15.734-32-28L24 100.526V48h128z" style="fill: #ffffff;"/></svg>
